<svg xmlns="http://www.w3.org/2000/svg" xmlns:xlink="http://www.w3.org/1999/xlink" viewBox="0 0 28.105 28.105"><defs><style>.a{fill:url(#a);}</style><linearGradient id="a" x1="0.5" x2="0.5" y2="1" gradientUnits="objectBoundingBox"><stop offset="0" stop-color="#fff"/><stop offset="1" stop-color="#00ceff"/></linearGradient></defs><g transform="translate(0 0)"><g transform="translate(0 8.782)"><g transform="translate(0 0)"><rect class="a" width="6.284" height="19.323"/></g></g><g transform="translate(8.782 8.782)"><g transform="translate(0 0)"><path class="a" d="M225.431,34.037c-.066-.022-.129-.044-.2-.063-.085-.019-.167-.035-.256-.051a5.665,5.665,0,0,0-1.127-.114,8.739,8.739,0,0,0-6.755,3.695V33.81H210.81V53.133h6.284V42.592s4.749-6.616,6.755-1.756v12.3h6.284V40.094A6.266,6.266,0,0,0,225.431,34.037Z" transform="translate(-210.81 -33.81)"/></g></g><circle class="a" cx="3.073" cy="3.073" r="3.073"/></g></svg>