<svg xmlns="http://www.w3.org/2000/svg" xmlns:xlink="http://www.w3.org/1999/xlink" viewBox="0 0 35.846 35.846"><defs><style>.a{fill:url(#a);}</style><linearGradient id="a" x1="0.5" x2="0.5" y2="1" gradientUnits="objectBoundingBox"><stop offset="0" stop-color="#fff"/><stop offset="1" stop-color="#00ceff"/></linearGradient></defs><g transform="translate(0 0)"><path class="a" d="M677.645,0H664.2A11.2,11.2,0,0,0,653,11.2V24.645a11.2,11.2,0,0,0,11.2,11.2h13.444a11.2,11.2,0,0,0,11.2-11.2V11.2A11.2,11.2,0,0,0,677.645,0Zm7.84,24.645a7.849,7.849,0,0,1-7.84,7.84H664.2a7.849,7.849,0,0,1-7.84-7.84V11.2a7.849,7.849,0,0,1,7.84-7.84h13.444a7.849,7.849,0,0,1,7.84,7.84Z" transform="translate(-653)"/><g transform="translate(8.962 8.962)"><path class="a" d="M687.212,25.25a8.962,8.962,0,1,0,8.962,8.962A8.964,8.964,0,0,0,687.212,25.25Zm0,14.562a5.6,5.6,0,1,1,5.6-5.6A5.607,5.607,0,0,1,687.212,39.812Z" transform="translate(-678.25 -25.25)"/></g><g transform="translate(26.363 7.098)"><circle class="a" cx="1.193" cy="1.193" r="1.193"/></g></g></svg>