<svg xmlns="http://www.w3.org/2000/svg" xmlns:xlink="http://www.w3.org/1999/xlink" viewBox="0 0 45.02 25.326"><defs><style>.a{fill:url(#a);}</style><linearGradient id="a" x1="0.5" x2="0.5" y2="1" gradientUnits="objectBoundingBox"><stop offset="0" stop-color="#fff"/><stop offset="1" stop-color="#00ceff"/></linearGradient></defs><g transform="translate(0 0)"><g transform="translate(22.507)"><path class="a" d="M473.358,21.253a6.975,6.975,0,0,0-1.467.154A12.685,12.685,0,0,0,459.288,10a1.41,1.41,0,0,0-1.408,1.408v22.51a1.41,1.41,0,0,0,1.408,1.408h14.07a7.036,7.036,0,0,0,0-14.073Z" transform="translate(-457.88 -10)"/></g><g transform="translate(16.88 2.813)"><g transform="translate(0 0)"><path class="a" d="M441.068,19.11a1.41,1.41,0,0,0-1.408,1.408v19.7a1.408,1.408,0,0,0,2.816,0v-19.7A1.408,1.408,0,0,0,441.068,19.11Z" transform="translate(-439.66 -19.11)"/></g></g><g transform="translate(11.253 8.44)"><path class="a" d="M422.848,37.33a1.41,1.41,0,0,0-1.408,1.408v14.07a1.408,1.408,0,1,0,2.816,0V38.738A1.41,1.41,0,0,0,422.848,37.33Z" transform="translate(-421.44 -37.33)"/></g><g transform="translate(5.627 8.44)"><path class="a" d="M404.628,37.33a1.41,1.41,0,0,0-1.408,1.408v14.07a1.408,1.408,0,0,0,2.816,0V38.738A1.412,1.412,0,0,0,404.628,37.33Z" transform="translate(-403.22 -37.33)"/></g><g transform="translate(0 12.662)"><g transform="translate(0 0)"><path class="a" d="M386.408,51A1.41,1.41,0,0,0,385,52.408v8.44a1.408,1.408,0,1,0,2.816,0v-8.44A1.412,1.412,0,0,0,386.408,51Z" transform="translate(-385 -51)"/></g></g></g></svg>